<?xml version="1.0" standalone="no"?>
<!DOCTYPE svg PUBLIC "-//W3C//DTD SVG 20010904//EN"
 "http://www.w3.org/TR/2001/REC-SVG-20010904/DTD/svg10.dtd">
<svg version="1.0" xmlns="http://www.w3.org/2000/svg"
 width="1129.000000pt" height="1127.000000pt" viewBox="0 0 1129.000000 1127.000000"
 preserveAspectRatio="xMidYMid meet">

<g transform="translate(0.000000,1127.000000) scale(0.100000,-0.100000)"
fill="#000000" stroke="none">
<path d="M5245 10840 c-313 -15 -751 -89 -1066 -180 -218 -64 -694 -255 -895
-360 -143 -74 -438 -249 -561 -331 -413 -277 -848 -680 -1154 -1069 -256 -324
-412 -566 -573 -887 -121 -242 -163 -337 -241 -548 -151 -404 -255 -844 -297
-1250 -17 -167 -17 -1001 0 -1155 50 -449 164 -907 333 -1333 71 -179 70 -177
176 -397 248 -512 562 -949 998 -1386 394 -396 874 -741 1384 -994 212 -106
580 -250 824 -324 181 -55 549 -130 792 -161 301 -39 1056 -39 1360 0 334 43
754 139 985 225 47 18 96 35 110 40 155 50 422 164 585 249 489 256 896 549
1279 922 445 432 769 875 1031 1404 259 524 417 1031 499 1597 58 395 57 1107
0 1498 -89 605 -301 1227 -614 1795 -129 236 -349 550 -577 825 -326 392 -822
813 -1288 1092 -327 196 -496 279 -765 380 -58 22 -150 57 -205 79 -246 96
-671 196 -1035 244 -250 32 -701 43 -1085 25z m620 -115 c471 -17 1026 -120
1430 -265 94 -34 207 -75 251 -91 79 -28 125 -49 394 -176 112 -53 414 -227
530 -306 41 -28 239 -173 369 -271 151 -114 413 -363 606 -576 115 -127 331
-403 435 -555 128 -186 338 -574 448 -827 200 -458 342 -1013 392 -1528 18
-184 24 -640 11 -817 -28 -380 -66 -606 -162 -981 -126 -488 -356 -1004 -665
-1488 -66 -103 -327 -446 -394 -519 -36 -38 -88 -95 -115 -125 -123 -135 -168
-180 -288 -289 -193 -174 -225 -201 -437 -360 -452 -340 -1029 -632 -1570
-794 -329 -99 -791 -184 -1080 -197 -660 -32 -1116 9 -1675 152 -431 109 -900
311 -1335 573 -393 236 -811 581 -1140 940 -162 176 -426 518 -519 672 -29 48
-75 124 -103 168 -62 101 -274 529 -323 655 -116 296 -169 470 -254 830 -88
373 -133 907 -111 1335 29 591 140 1101 365 1675 62 158 267 564 376 745 101
167 365 532 470 650 296 330 492 514 784 734 245 184 280 207 480 328 166 99
205 120 415 221 384 184 889 349 1255 411 328 55 801 96 975 84 19 -1 103 -5
185 -8z"/>
<path d="M5322 10230 c-67 -9 -126 -21 -131 -26 -5 -5 -16 -88 -25 -184 -31
-339 -42 -411 -58 -367 -32 86 -181 495 -184 505 -4 15 -29 14 -184 -6 -117
-16 -125 -19 -128 -40 -2 -13 13 -148 33 -300 53 -407 65 -486 73 -494 9 -9
173 10 183 21 4 3 -1 65 -11 136 -54 385 -59 438 -41 420 17 -17 180 -439 197
-509 l7 -28 81 6 c103 9 115 13 121 39 3 12 16 132 30 267 28 273 34 314 42
307 6 -6 57 -371 68 -483 4 -40 10 -77 14 -83 10 -16 181 7 188 26 3 8 -13
157 -37 331 -23 174 -47 354 -53 400 -13 96 7 89 -185 62z"/>
<path d="M6021 10138 c-21 -45 -77 -163 -125 -262 -47 -98 -98 -206 -113 -240
-15 -33 -42 -90 -59 -126 -24 -49 -29 -68 -21 -76 7 -7 53 -15 104 -19 l92 -6
14 28 c8 15 18 42 21 60 4 17 13 36 19 41 11 8 243 -10 272 -22 7 -2 15 -35
18 -72 4 -37 12 -71 18 -74 12 -8 190 -22 196 -16 2 2 -38 193 -89 424 l-93
421 -45 5 c-25 3 -73 8 -107 12 l-62 6 -40 -84z m149 -292 c11 -65 20 -124 20
-132 0 -11 -15 -13 -77 -7 -43 3 -79 7 -81 9 -3 2 19 55 88 207 12 27 23 47
26 45 2 -3 13 -57 24 -122z"/>
<path d="M6953 10020 c-128 -27 -254 -154 -301 -307 -28 -91 -33 -135 -21
-218 19 -138 87 -227 221 -291 76 -35 92 -39 184 -42 114 -5 160 9 227 67 40
36 81 95 75 112 -3 10 -123 57 -169 66 -19 3 -31 -1 -40 -14 -59 -81 -204 -65
-267 29 -22 33 -26 52 -26 107 0 80 34 184 78 237 59 72 157 93 236 51 54 -29
78 -60 88 -116 l7 -43 89 -30 c48 -16 94 -27 102 -24 20 8 8 137 -18 198 -23
53 -104 135 -164 166 -91 46 -220 69 -301 52z"/>
<path d="M4198 9997 c-52 -17 -68 -26 -68 -41 0 -10 52 -176 115 -368 63 -193
115 -355 115 -362 0 -7 6 -20 13 -29 11 -16 18 -15 97 12 47 16 86 35 88 43 1
7 -54 182 -122 388 -143 426 -122 395 -238 357z"/>
<path d="M7764 9698 c-9 -18 -40 -69 -69 -113 -103 -159 -196 -317 -215 -366
-69 -174 38 -349 266 -435 161 -60 276 -8 398 181 127 196 236 378 236 395 0
12 -20 29 -57 50 -32 18 -66 40 -76 48 -17 15 -20 15 -38 -8 -11 -14 -31 -45
-45 -70 -13 -25 -42 -72 -64 -105 -22 -33 -47 -73 -56 -90 -51 -91 -129 -198
-157 -216 -79 -49 -227 31 -227 124 0 32 24 100 48 134 55 79 242 387 242 399
0 8 -19 25 -42 40 -24 14 -55 34 -70 45 -38 27 -55 24 -74 -13z"/>
<path d="M3170 9506 c-41 -29 -74 -59 -74 -67 1 -8 40 -169 87 -359 47 -190
90 -372 96 -405 6 -32 15 -63 20 -68 4 -4 21 2 37 15 43 35 112 78 125 78 13
0 9 41 -12 114 -13 45 -13 50 4 60 10 6 61 39 113 73 l94 61 59 -49 59 -49 84
51 c45 29 85 54 88 56 5 5 -9 18 -126 109 -44 34 -184 146 -312 248 -129 102
-241 186 -250 185 -10 -1 -51 -25 -92 -53z m251 -288 c54 -46 99 -85 99 -88 0
-3 -30 -25 -66 -49 -49 -32 -68 -40 -74 -31 -4 7 -20 58 -35 114 -14 56 -29
109 -31 119 -3 9 -3 17 1 17 3 0 51 -37 106 -82z"/>
<path d="M8409 8928 c-118 -128 -241 -261 -274 -296 -33 -35 -61 -68 -63 -72
-3 -9 -4 -9 134 -135 60 -55 138 -128 175 -162 36 -35 70 -63 76 -63 6 0 17
10 25 23 9 12 32 38 52 58 22 22 34 41 31 50 -4 8 -37 40 -75 73 -37 32 -89
79 -114 103 l-47 45 42 46 c40 44 285 305 357 380 17 19 32 42 32 52 0 14
-118 130 -133 130 -2 0 -100 -104 -218 -232z"/>
<path d="M2597 9065 l-69 -65 19 -24 c10 -13 90 -104 178 -202 88 -98 200
-223 249 -278 49 -56 92 -102 97 -104 9 -4 130 93 142 114 8 14 -12 38 -218
266 -66 73 -165 182 -219 243 -54 60 -102 111 -105 112 -3 1 -37 -27 -74 -62z"/>
<path d="M2249 8691 c-55 -36 -132 -116 -238 -248 -44 -56 -86 -105 -91 -108
-27 -17 -1 -48 130 -155 78 -63 191 -157 253 -208 62 -51 141 -115 177 -143
l65 -49 20 27 c11 15 37 47 57 71 21 24 38 47 38 53 0 5 -39 39 -87 76 -48 38
-102 82 -121 98 l-33 30 28 31 c15 17 37 44 49 59 l20 29 150 -52 c82 -29 155
-52 162 -52 21 0 145 146 136 161 -3 5 -15 9 -27 9 -12 1 -89 23 -172 49
l-150 48 -7 58 c-12 93 -69 167 -170 220 -67 35 -130 34 -189 -4z m148 -209
c13 -15 23 -36 23 -47 0 -20 -112 -176 -131 -183 -19 -7 -119 80 -119 104 0 6
34 46 75 89 67 70 77 77 102 71 15 -4 38 -19 50 -34z"/>
<path d="M9299 8426 c-2 -2 -130 -43 -284 -91 -435 -135 -509 -158 -522 -158
-14 0 28 -61 90 -132 41 -46 44 -47 67 -34 25 14 90 39 101 39 6 0 122 -153
149 -196 13 -22 12 -23 -65 -130 -6 -9 7 -36 45 -93 30 -44 60 -80 66 -81 6 0
32 30 57 68 25 37 91 130 146 207 55 77 139 198 188 269 48 70 94 137 102 147
15 21 20 12 -64 123 -45 59 -63 74 -76 62z m-135 -273 c-21 -27 -52 -64 -68
-83 -17 -19 -40 -48 -52 -64 l-21 -28 -47 66 c-26 37 -46 69 -44 71 1 1 46 16
98 33 52 17 111 37 130 45 19 9 37 14 39 11 2 -2 -13 -25 -35 -51z"/>
<path d="M1606 7808 c-8 -13 -24 -44 -36 -70 -11 -26 -25 -50 -30 -53 -16 -10
-12 -51 6 -66 9 -8 84 -86 167 -174 250 -266 408 -424 421 -418 11 5 87 151
86 168 0 6 -23 31 -52 57 l-53 47 64 124 63 124 66 -14 c36 -7 72 -11 78 -9
12 5 106 177 100 183 -1 2 -61 10 -132 18 -71 9 -136 17 -144 20 -14 4 -567
85 -582 85 -4 0 -14 -10 -22 -22z m431 -229 l22 -8 -33 -63 c-19 -34 -38 -64
-43 -65 -10 -4 -179 151 -193 176 -8 16 2 15 108 -7 64 -13 127 -28 139 -33z"/>
<path d="M9725 7791 c-9 -8 -640 -288 -702 -312 -13 -5 -23 -14 -23 -20 0 -13
95 -230 123 -279 62 -111 104 -151 201 -196 54 -24 66 -26 150 -21 108 6 185
31 270 91 116 80 172 189 162 312 -6 77 -49 208 -110 334 -20 41 -36 80 -36
87 0 15 -21 17 -35 4z m-26 -318 c24 -75 25 -93 11 -145 -21 -74 -96 -137
-196 -163 -106 -27 -171 4 -248 120 -38 57 -34 69 30 96 30 13 121 54 202 90
81 37 154 67 164 68 12 1 22 -17 37 -66z"/>
<path d="M3776 7241 c-4 -5 -1 -63 5 -128 6 -65 11 -120 11 -123 4 -45 2 -46
-118 -57 -109 -10 -142 -22 -128 -44 2 -4 15 -137 29 -296 14 -158 32 -360 40
-448 35 -374 73 -808 100 -1130 19 -221 34 -348 43 -357 4 -4 41 -2 82 3 548
70 1124 -26 1491 -249 139 -84 132 -82 309 -83 174 0 190 4 301 80 215 144
584 250 949 270 143 8 445 -4 601 -25 l46 -6 12 118 c6 66 18 189 26 274 8 85
22 232 30 325 26 299 63 710 95 1055 10 113 22 250 25 305 4 55 11 120 16 144
5 24 8 45 6 47 -2 2 -59 8 -127 14 -68 6 -125 12 -128 14 -4 5 12 176 25 260
l5 39 -138 -7 c-547 -27 -999 -160 -1364 -403 -133 -89 -164 -114 -277 -224
-51 -49 -95 -89 -99 -89 -3 0 -48 39 -98 88 -50 48 -126 113 -168 145 -366
275 -880 450 -1418 482 -58 3 -121 8 -141 11 -21 3 -40 1 -43 -5z m3585 -143
c2 -33 -6 -130 -51 -618 -68 -723 -89 -942 -100 -1034 -6 -44 -10 -101 -10
-128 0 -77 -6 -82 -132 -113 -567 -136 -1005 -349 -1263 -614 -107 -110 -96
-214 -93 858 l3 941 75 75 c317 322 775 536 1299 609 62 9 135 16 164 17 29 0
61 4 72 9 28 12 35 12 36 -2z m-3161 -29 c532 -73 955 -268 1288 -593 l82 -81
0 -937 c0 -516 -3 -938 -6 -938 -4 0 -45 37 -93 82 -220 209 -493 361 -883
494 -137 46 -315 96 -416 115 -49 9 -66 17 -72 33 -5 12 -18 127 -30 256 -34
375 -58 639 -80 865 -11 116 -29 309 -40 430 -11 121 -22 239 -25 263 l-5 43
68 -6 c37 -4 132 -15 212 -26z m-390 -268 c0 -9 45 -484 89 -941 11 -113 30
-311 41 -440 12 -129 24 -253 28 -275 7 -39 8 -40 57 -48 198 -32 496 -115
700 -197 164 -65 485 -239 485 -262 0 -5 -8 -4 -17 1 -51 28 -215 84 -327 111
-242 59 -300 64 -663 65 l-332 0 -6 70 c-3 39 -35 396 -71 795 -35 399 -72
804 -80 900 -8 96 -16 184 -17 195 -2 15 6 21 33 26 54 10 80 10 80 0z m3765
-6 c13 -1 19 -9 18 -21 -1 -10 -9 -95 -18 -189 -8 -93 -20 -217 -25 -275 -14
-147 -40 -425 -50 -550 -5 -58 -16 -184 -25 -280 -9 -96 -26 -287 -39 -425
l-22 -250 -25 3 c-13 1 -137 5 -274 8 -378 10 -581 -19 -919 -130 -44 -15 -81
-24 -83 -22 -9 8 275 162 391 212 220 94 520 183 721 215 44 7 83 15 86 18 7
6 25 182 69 656 11 121 29 310 40 420 10 110 26 279 35 375 9 96 18 192 21
213 6 37 6 37 42 31 21 -4 46 -8 57 -9z"/>
<path d="M1286 7122 c-3 -4 -16 -58 -30 -120 -15 -61 -30 -121 -35 -134 -4
-13 -6 -29 -3 -37 2 -7 122 -71 266 -142 l261 -128 -297 -1 -297 0 -14 -52
c-59 -223 -62 -268 -18 -268 9 0 93 -18 186 -41 513 -122 577 -136 581 -125
13 38 42 181 38 188 -3 4 -17 8 -32 8 -15 0 -94 16 -177 35 -82 20 -193 45
-245 56 -126 27 -131 29 -95 41 17 5 156 8 309 6 l280 -2 23 84 c13 47 22 90
21 97 -2 6 -122 71 -268 143 -146 72 -269 135 -273 140 -18 17 67 1 316 -60
141 -35 260 -61 263 -58 8 9 44 149 44 175 0 17 -8 22 -42 28 -24 3 -97 19
-163 35 -66 15 -172 40 -235 55 -63 15 -168 40 -232 56 -134 33 -125 32 -132
21z"/>
<path d="M9293 6738 c6 -45 35 -169 39 -174 2 -2 34 -4 71 -6 37 -1 71 -5 75
-8 8 -5 54 -207 56 -245 1 -14 -16 -29 -61 -54 -46 -25 -63 -40 -63 -55 0 -31
30 -170 38 -178 4 -4 68 29 142 73 192 116 557 332 586 347 13 7 24 16 24 20
0 20 -39 194 -44 199 -5 6 -353 52 -541 73 -49 5 -137 16 -195 25 -141 20
-133 21 -127 -17z m655 -229 c-6 -14 -241 -130 -249 -122 -5 6 -39 130 -39
146 0 1 65 -2 145 -7 80 -5 144 -13 143 -17z"/>
<path d="M3205 6593 c6 -95 43 -401 125 -1039 22 -170 48 -380 59 -465 53
-415 82 -628 89 -669 l8 -45 54 -8 c62 -10 1540 -267 1720 -299 142 -26 498
-36 623 -19 80 12 159 25 1002 172 226 39 522 90 658 113 176 29 251 46 257
56 7 13 34 201 75 530 7 58 25 195 40 305 14 110 32 252 40 315 26 211 45 354
60 460 38 273 75 594 75 655 l0 35 -140 0 c-104 0 -142 -3 -144 -12 -2 -7 -9
-78 -15 -158 -6 -80 -16 -188 -21 -240 -5 -52 -14 -149 -20 -215 -6 -66 -15
-167 -20 -225 -20 -202 -40 -436 -50 -560 -6 -69 -17 -190 -24 -270 -8 -80
-20 -212 -27 -294 -9 -96 -17 -150 -25 -153 -7 -2 -74 3 -151 12 -193 23 -503
31 -633 16 -165 -19 -381 -59 -461 -85 -86 -29 -124 -44 -279 -114 -19 -9 -66
-35 -103 -59 -114 -74 -127 -77 -347 -77 l-195 -1 -65 38 c-36 21 -90 53 -120
70 -68 40 -223 108 -310 135 -300 96 -617 121 -1028 82 -128 -12 -235 -20
-237 -18 -2 2 -44 453 -94 1003 -50 550 -93 1028 -97 1063 l-6 62 -139 0 -140
0 6 -97z"/>
<path d="M9738 5754 c-13 -21 -28 -142 -40 -326 l-12 -188 -56 0 c-60 0 -435
-38 -460 -47 -10 -4 -5 -8 15 -14 43 -12 335 -39 425 -39 l77 0 7 -172 c7
-190 26 -340 43 -345 18 -6 36 136 49 383 l7 131 146 7 c145 7 358 29 367 39
10 9 -243 43 -416 55 l-105 7 -2 70 c-4 115 -24 377 -31 415 -5 19 -11 30 -14
24z"/>
<path d="M1527 5649 c-9 -57 -22 -173 -29 -256 l-12 -153 -59 0 c-59 0 -389
-35 -437 -46 -25 -6 -25 -6 -3 -15 30 -11 329 -39 423 -39 l77 0 6 -112 c5
-104 29 -314 43 -381 3 -16 10 -25 14 -20 10 10 37 238 46 394 l7 116 131 7
c138 6 375 32 384 41 3 3 1 5 -4 5 -5 0 -74 9 -154 20 -80 10 -193 22 -251 26
l-105 7 -12 141 c-18 202 -34 339 -42 355 -4 7 -14 -33 -23 -90z"/>
<path d="M4052 1928 c-17 -13 -87 -86 -155 -163 -69 -77 -136 -151 -151 -164
-14 -14 -26 -33 -26 -43 0 -32 41 -20 91 27 l48 44 93 -42 c51 -23 96 -46 99
-51 4 -5 4 -35 2 -67 -6 -56 -5 -58 21 -65 15 -3 29 -4 33 -1 6 6 19 306 18
433 0 54 -5 87 -14 97 -17 22 -22 21 -59 -5z m12 -197 c-5 -87 -10 -121 -19
-121 -18 0 -145 58 -145 66 0 16 159 188 167 180 2 -2 1 -58 -3 -125z"/>
<path d="M7201 1931 c-15 -10 -16 -61 -5 -354 6 -136 10 -170 22 -174 30 -12
47 12 47 68 0 30 4 60 8 67 9 14 66 41 145 68 l53 19 35 -42 c24 -28 44 -43
59 -43 64 0 42 30 -239 327 -68 72 -92 84 -125 64z m171 -202 c21 -24 38 -49
38 -54 0 -6 -32 -21 -71 -35 -60 -20 -72 -21 -80 -9 -5 8 -9 64 -9 124 l0 110
43 -46 c23 -25 59 -65 79 -90z"/>
<path d="M4398 1804 c-17 -29 -129 -457 -124 -471 7 -17 41 -17 53 0 9 11 18
39 43 136 l11 44 43 -6 c90 -13 93 -16 101 -133 7 -100 12 -114 46 -127 32
-11 36 6 23 93 -20 129 -19 136 16 150 96 40 119 184 39 241 -55 39 -240 93
-251 73z m137 -85 c77 -25 109 -59 99 -107 -12 -61 -57 -78 -152 -58 -35 8
-66 16 -69 20 -7 6 10 98 26 139 13 32 14 33 96 6z"/>
<path d="M6717 1766 c-43 -13 -83 -28 -90 -35 -8 -8 -6 -31 10 -89 11 -42 37
-138 57 -212 20 -74 39 -143 42 -152 3 -12 15 -18 35 -18 25 0 29 4 29 28 0
15 -9 59 -20 97 -11 38 -20 73 -20 77 0 3 30 16 68 28 122 40 162 79 162 156
0 45 -33 106 -70 127 -39 23 -109 21 -203 -7z m184 -65 c16 -16 29 -40 29 -53
0 -35 -39 -74 -93 -92 -62 -21 -94 -20 -106 2 -14 26 -35 131 -28 139 11 10
99 32 135 32 24 1 42 -7 63 -28z"/>
<path d="M4867 1693 c-3 -4 -12 -57 -21 -118 -9 -60 -26 -164 -37 -229 -17
-98 -18 -121 -7 -131 15 -14 249 -49 288 -44 16 3 26 11 28 25 3 24 0 25 -150
45 l-98 12 0 36 c1 39 15 119 22 126 2 3 42 -2 89 -10 46 -8 97 -15 112 -15
25 0 28 3 25 27 -3 26 -8 28 -58 35 -30 4 -79 12 -109 19 l-53 11 7 56 c12
105 4 102 151 76 103 -19 124 -15 124 19 0 22 -6 24 -107 40 -178 27 -200 29
-206 20z"/>
<path d="M6404 1686 c-5 -12 57 -384 75 -453 8 -29 35 -40 59 -24 14 8 11 26
-74 469 -3 16 -11 22 -30 22 -13 0 -27 -6 -30 -14z"/>
<path d="M6196 1663 c-15 -4 -17 -11 -13 -41 17 -113 30 -319 21 -346 -29 -86
-165 -100 -214 -22 -8 12 -21 96 -31 193 -10 95 -20 177 -24 183 -3 5 -18 10
-32 10 l-25 0 7 -117 c14 -242 38 -322 110 -358 76 -38 192 -19 244 40 39 45
46 94 32 231 -7 60 -14 137 -18 172 -6 64 -9 67 -57 55z"/>
<path d="M5432 1626 c-57 -26 -100 -66 -123 -114 -33 -67 -33 -208 -1 -269 45
-86 144 -133 246 -118 43 7 47 5 79 -29 33 -35 60 -45 71 -27 3 5 -5 30 -19
56 l-24 48 23 31 c58 77 74 149 52 238 -27 115 -105 188 -209 194 -41 3 -73
-1 -95 -10z m129 -57 c106 -36 149 -182 88 -300 -52 -102 -203 -112 -271 -17
-34 49 -39 170 -8 233 39 80 109 111 191 84z"/>
</g>
</svg>
